<?xml version="1.0" encoding="utf-8"?>
<!-- Generator: Adobe Illustrator 23.0.3, SVG Export Plug-In . SVG Version: 6.00 Build 0)  -->
<svg version="1.1" id="Layer_1" xmlns="http://www.w3.org/2000/svg" xmlns:xlink="http://www.w3.org/1999/xlink" x="0px" y="0px"
	 viewBox="0 0 153 88" style="enable-background:new 0 0 153 88;" xml:space="preserve">
<style type="text/css">
	.st0{fill:#FF0000;}
	.st1{fill:#808080;}
</style>
<g>
	<g id="C5IGgJ.tif">
		<g>
			<path class="st0" d="M152.7,35.9c0,5.4,0,10.9,0,16.3c0,0.3,0,0.7-0.1,1c-0.2,0.6-0.5,1-1.1,1.2c-0.8,0.3-1.5,0.1-2.3,0.2
				c-1.7,0-3.5,0-5.2,0c-1,0-1.9-0.7-1.9-1.9c0-2.5,0-4.9,0-7.4c0-1.8,0-3.5,0-5.3c0-0.3,0-0.7,0-1c0-0.1,0-0.2,0-0.3
				c0-0.1,0-0.2-0.1-0.2c-0.1,0-0.1,0.1-0.2,0.1c-0.1,0.2-0.2,0.3-0.2,0.5c-0.5,1.4-1.1,2.8-1.6,4.1c-0.6,1.5-1.2,2.9-1.8,4.4
				c-0.5,1.3-1,2.5-1.5,3.8c-0.3,0.8-0.6,1.5-0.9,2.3c-0.3,0.7-0.7,1-1.6,1c-1,0.1-2.1,0.1-3.1,0c-1-0.1-1.3-0.3-1.7-1.3
				c-0.5-1.3-1.1-2.7-1.6-4c-0.4-1-0.8-2.1-1.2-3.1c-0.4-1-0.8-2-1.2-3c-0.3-0.8-0.6-1.6-1-2.4c-0.2-0.5-0.4-1.1-0.7-1.6
				c-0.1-0.2-0.1-0.4-0.2-0.6c0-0.1-0.2-0.2-0.3-0.2c-0.1,0-0.1,0.2-0.1,0.3c0.1,4.6,0,9.1,0.1,13.7c0,0.2,0,0.5-0.1,0.7
				c-0.1,0.5-0.4,0.9-0.8,1.2c-0.3,0.2-0.7,0.3-1.1,0.3c-2.2,0-4.4,0-6.6,0c-0.7,0-1.3-0.3-1.7-0.9c-0.2-0.3-0.3-0.7-0.3-1.1
				c0-5.6,0-11.2,0-16.8c0-4.4,0-8.8,0-13.2c0-1.2,0-2.3,0-3.5c0-1.2,1-2,2-2c3.3,0,6.5,0,9.8,0c0.8,0,1.4,0.4,1.7,1.2
				c0.3,0.9,0.7,1.8,1.1,2.7c0.4,1,0.8,2.1,1.2,3.1c0.3,0.8,0.7,1.6,1,2.5c0.3,0.8,0.6,1.6,1,2.4c0.2,0.5,0.4,1.1,0.7,1.7
				c0.4,1,0.8,2,1.2,3c0.1,0.2,0.1,0.4,0.2,0.6c0,0.2,0.1,0.3,0.3,0.3c0.2,0,0.2-0.2,0.2-0.3c0.2-0.6,0.4-1.1,0.6-1.7
				c0.2-0.5,0.4-1,0.6-1.6c0.4-0.9,0.7-1.8,1.1-2.7c0.3-0.7,0.6-1.5,0.9-2.2c0.4-0.9,0.7-1.7,1-2.6c0.4-1,0.8-2,1.2-3
				c0.3-0.9,0.7-1.7,1-2.6c0.2-0.6,0.7-0.8,1.3-0.8c3.4,0,6.8,0,10.2,0c0.9,0,1.9,0.9,1.9,2c0,0.2,0,0.3,0,0.5
				C152.7,25,152.7,30.5,152.7,35.9z"/>
			<path class="st0" d="M55.3,32.4c2.6,0,5.2,0,7.9,0c1.1,0,2,0.9,1.9,2c0,2.6,0,5.2,0,7.8c0,1.6,0,3.3,0,4.9c0,0.6-0.3,1.1-0.7,1.5
				c-0.8,0.8-1.6,1.6-2.4,2.2c-0.7,0.5-1.4,1-2.1,1.5c-0.9,0.5-1.8,1-2.7,1.4c-0.6,0.3-1.3,0.5-2,0.7c-0.6,0.2-1.2,0.3-1.8,0.4
				c-0.7,0.2-1.4,0.2-2,0.3c-1.3,0.2-2.6,0.2-3.8,0.1c-1,0-1.9-0.2-2.9-0.4c-0.7-0.1-1.4-0.3-2-0.5c-0.7-0.2-1.3-0.4-1.9-0.7
				c-0.4-0.2-0.9-0.4-1.3-0.6c-0.9-0.4-1.7-0.9-2.4-1.5c-1-0.7-1.9-1.4-2.7-2.3c-0.8-0.9-1.5-1.8-2.2-2.8c-0.5-0.7-0.8-1.4-1.2-2.2
				c-0.4-0.8-0.7-1.6-0.9-2.4c-0.3-1.1-0.6-2.2-0.7-3.3c-0.3-2-0.3-3.9,0.1-5.9c0.2-1.3,0.5-2.5,0.9-3.8c0.3-1,0.8-1.9,1.3-2.8
				c0.9-1.6,2-3,3.3-4.2c0.6-0.6,1.2-1.1,1.9-1.6c0.7-0.5,1.5-1,2.3-1.5c0.7-0.4,1.4-0.7,2.2-1c0.5-0.2,0.9-0.4,1.4-0.5
				c0.6-0.1,1.1-0.4,1.7-0.4c0.3,0,0.5-0.1,0.8-0.2c1.9-0.2,3.7-0.5,5.6-0.2c0.6,0.1,1.2,0.1,1.7,0.2c0.7,0.2,1.3,0.3,2,0.5
				c0.7,0.2,1.4,0.4,2.1,0.7c0.5,0.2,1,0.4,1.4,0.7c0.6,0.3,1.1,0.7,1.7,1.1c0.5,0.4,1.1,0.8,1.5,1.3c0.8,0.7,1.5,1.5,2.1,2.4
				c0.3,0.4,0.6,0.9,0.9,1.3c0.1,0.2,0.2,0.4,0.2,0.6c0,0.7-0.1,1.4-0.7,1.8c-0.4,0.2-0.7,0.4-1.1,0.6c-0.7,0.4-1.5,0.8-2.2,1.2
				c-0.7,0.4-1.5,0.8-2.2,1.2c-0.4,0.2-0.7,0.4-1.2,0.5c-0.6,0.1-1.2-0.1-1.5-0.7c-0.6-0.9-1.3-1.7-2.2-2.3
				c-0.7-0.5-1.5-0.9-2.3-1.1c-0.8-0.3-1.7-0.3-2.5-0.3c-0.2,0-0.4,0-0.7,0c-0.8,0-1.6,0.2-2.3,0.5c-0.6,0.2-1.1,0.5-1.6,0.8
				c-0.7,0.5-1.3,1-1.9,1.7c-0.7,0.9-1.2,1.8-1.6,2.9c-0.5,1.4-0.6,2.8-0.5,4.2c0,0.7,0.1,1.5,0.3,2.2c0.6,2,1.6,3.6,3.3,4.9
				c0.6,0.4,1.3,0.8,1.9,1.1c0.4,0.2,0.7,0.3,1.1,0.4c0.4,0.2,0.9,0.2,1.3,0.2c0.9,0.1,1.9,0.1,2.8-0.1c0.5-0.1,1-0.3,1.6-0.5
				c0.7-0.2,1.3-0.6,1.9-0.9c0.2-0.1,0.2-0.3,0.2-0.5c0-0.2,0-0.5,0-0.7c0-0.4-0.1-0.5-0.5-0.5c-0.9,0-1.8,0-2.7,0
				c-1.3,0-2.6,0-3.9,0c-1.1,0-1.9-0.8-1.9-1.9c0-2,0-4,0-6c0-1.1,0.9-1.9,1.9-1.9C50,32.4,52.7,32.4,55.3,32.4z"/>
			<path class="st0" d="M67.2,35.7c0-1.3,0-2.6,0-4c0-2,0-4,0-6c0-1.2,0-2.3,0-3.5c0-0.9,0-1.9,0-2.8c0-0.4,0-0.7,0.1-1.1
				c0-0.2,0.2-0.4,0.3-0.6c0.4-0.5,1-0.8,1.6-0.8c4.6,0,9.3,0,13.9,0c1,0,2-0.1,3,0.1c0.7,0.1,1.5,0.1,2.2,0.4
				c0.4,0.1,0.7,0.2,1.1,0.3c1.2,0.3,2.2,0.8,3.2,1.5c1.2,0.8,2.2,1.7,3,2.9c0.6,0.9,1.1,1.8,1.5,2.8c0.4,1.2,0.7,2.4,0.8,3.6
				c0.1,1.2,0.1,2.5-0.1,3.7c-0.2,1-0.4,2-0.9,3c-0.4,0.9-0.9,1.7-1.5,2.4c-0.7,1-1.6,1.7-2.6,2.4c-0.3,0.2-0.7,0.5-1.1,0.6
				c-0.3,0.1-0.4,0.3-0.2,0.6c0.5,0.7,0.9,1.5,1.3,2.2c0.5,0.9,1,1.7,1.5,2.6c0.4,0.7,0.8,1.4,1.2,2.1c0.5,0.8,1,1.7,1.5,2.5
				c0.2,0.4,0.5,0.8,0.7,1.3c0.4,0.7,0.2,1.4-0.3,2c-0.3,0.5-0.8,0.6-1.4,0.6c-2.7,0-5.4,0-8.1,0c-0.6,0-1.1-0.3-1.4-0.8
				c-0.6-1.2-1.3-2.3-1.9-3.5c-0.6-1-1.1-2-1.7-3c-0.4-0.8-0.9-1.6-1.3-2.4c-0.4-0.7-0.7-1.3-1.1-2c-0.1-0.2-0.3-0.4-0.6-0.4
				c-0.6,0-1.1,0-1.7,0c-0.3,0-0.4,0.1-0.4,0.4c0,3.2,0,6.4,0,9.6c0,0.7-0.2,1.3-0.8,1.7c-0.3,0.2-0.7,0.4-1.1,0.4
				c-2.3,0-4.6,0-6.9,0c-0.6,0-1.1-0.3-1.5-0.7c-0.4-0.5-0.4-1.1-0.4-1.6c0-1.1,0-2.2,0-3.3c0-0.7,0-1.4,0-2.1c0-1.3,0-2.7,0-4
				c0-1.7,0-3.4,0-5.1C67.2,36.9,67.2,36.3,67.2,35.7C67.2,35.7,67.2,35.7,67.2,35.7z M82,34.1C82,34.1,82,34,82,34.1
				c0.9-0.1,1.7-0.1,2.6-0.1c0.7,0,1.3-0.1,1.9-0.5c1-0.6,1.5-1.6,1.4-2.7c-0.1-1.6-1.5-2.8-3.1-2.8c-0.2,0-0.4,0-0.6,0
				c-0.3,0-0.4-0.1-0.3-0.4c0-0.2,0-0.4,0-0.6c0-0.8-0.2-1.5-0.7-2.1c-0.9-1.1-2.4-1.5-3.7-0.7c-1,0.6-1.5,1.4-1.6,2.6
				c0,2-0.1,4-0.1,6c0,0.6,0.4,1.2,1.2,1.2C80,34.1,81,34.1,82,34.1z"/>
			<path class="st0" d="M19.7,17.2c1.5,0,3,0,4.4,0c0.7,0,1.4,0.4,1.7,1.2c0.4,1.1,0.8,2.2,1.3,3.3c0.5,1.4,1.1,2.8,1.6,4.2
				c0.1,0.4,0.3,0.8,0.4,1.2c0,0.1,0.1,0.2,0,0.4c-0.7,1.5-1,3.1-1.4,4.8c-0.3,1.6-0.4,3.2-0.4,4.8c0.1,1.7,0.4,3.4,0.9,5.1
				c0.3,1.2,0.7,2.4,1.3,3.6c0.6,1.3,1.4,2.4,2.3,3.5c0.8,1.1,1.8,2,2.8,2.9c0.5,0.4,1.1,0.8,1.6,1.2c0.5,0.3,1,0.7,1.5,1
				c0.1,0,0.2,0.1,0.2,0.2c0,0.1-0.2,0.1-0.3,0.2c-0.8,0.3-1.6,0.1-2.3,0.2c-2.1,0-4.3,0-6.4,0c-0.9,0-1.4-0.3-1.7-1.2
				c-0.3-1-0.7-1.9-1-2.9c-0.2-0.4-0.3-0.9-0.5-1.3c-0.1-0.3-0.2-0.4-0.5-0.4c-3.1,0-6.2,0-9.4,0c-0.7,0-1.4,0-2.1,0
				c-0.3,0-0.4,0.1-0.5,0.4c-0.5,1.5-1.1,2.9-1.6,4.4c-0.3,0.7-0.7,1-1.6,1c-2.6,0-5.3,0-7.9,0c-1.1,0-1.9-0.7-2-1.8
				c-0.1-0.4,0.2-0.8,0.3-1.2c0.3-0.8,0.6-1.6,0.9-2.4c0.3-0.9,0.7-1.8,1-2.6c0.3-0.7,0.5-1.3,0.8-2c0.3-0.9,0.7-1.7,1-2.6
				c0.6-1.6,1.2-3.1,1.8-4.7c0.4-1,0.8-2.1,1.2-3.1c0.4-1.1,0.8-2.1,1.2-3.2c0.3-0.8,0.6-1.6,0.9-2.4c0.4-1.1,0.8-2.2,1.3-3.3
				c0.3-0.8,0.6-1.7,1-2.5c0.6-1.5,1.2-3.1,1.8-4.6c0.2-0.6,0.6-1.1,1.3-1.1c0.4-0.1,0.8,0,1.3,0C17.3,17.2,18.5,17.2,19.7,17.2z
				 M19.8,39.6C19.8,39.6,19.8,39.6,19.8,39.6c0.8,0,1.7,0,2.5,0c0.1,0,0.2,0,0.3,0c0.6-0.1,1-0.8,0.7-1.3c-0.2-0.6-0.5-1.2-0.7-1.8
				c-0.6-1.4-1.1-2.7-1.6-4.1c-0.1-0.3-0.2-0.6-0.5-0.9c-0.3-0.3-0.7-0.5-1.2-0.2c-0.3,0.2-0.5,0.4-0.6,0.7
				c-0.2,0.5-0.4,1.1-0.6,1.6c-0.3,0.8-0.6,1.6-1,2.4c-0.3,0.7-0.5,1.4-0.8,2.1c-0.1,0.2-0.2,0.5-0.1,0.7c0.1,0.5,0.5,0.8,1.1,0.8
				C18.2,39.6,19,39.6,19.8,39.6z"/>
			<path class="st0" d="M110.2,35.9c0,5.6,0,11.2,0,16.7c0,0.7-0.3,1.3-0.9,1.7c-0.3,0.2-0.7,0.3-1.1,0.3c-2.2,0-4.4,0-6.6,0
				c-0.7,0-1.4-0.3-1.8-0.9c-0.2-0.3-0.3-0.7-0.3-1.1c0-2.7,0-5.3,0-8c0-1.7,0-3.5,0-5.2c0-4.4,0-8.9,0-13.3c0-0.2,0-0.5-0.2-0.6
				c-0.2-0.2-0.2-0.4-0.3-0.7c-0.6-1.3-1.2-2.6-1.8-3.8c-0.3-0.6-0.6-1.2-0.9-1.8c-0.2-0.3-0.2-0.6-0.2-0.9c0-0.4,0.3-0.7,0.6-0.8
				c0.5-0.2,1.1-0.2,1.7-0.2c3.3,0,6.5,0,9.8,0c0.8,0,1.3,0.4,1.8,1c0.2,0.3,0.2,0.6,0.2,0.9C110.2,24.7,110.2,30.3,110.2,35.9z"/>
		</g>
	</g>
	<path class="st1" d="M71.3,64.8c-0.2,0-0.5-0.1-0.7-0.2v-0.3c-0.4,0.5-0.9,0.8-1.4,0.9c0.4,0.4,0.8,0.6,1.3,0.6
		c0.2,0,0.4,0,0.7-0.1l0,1c-0.3,0.1-0.6,0.2-0.8,0.2c-0.7,0-1.3-0.3-1.9-0.9c-0.5-0.6-0.8-1.3-0.8-2l1-0.4c0,0.3,0.1,0.6,0.1,0.8
		c0.3,0,0.5-0.1,0.8-0.3c0.2-0.2,0.3-0.4,0.3-0.7c0-0.4-0.2-0.7-0.6-0.9c-0.1,0-0.1-0.1-0.2-0.1c0,0-0.6,0-1.8,0v-0.8h4.8v0.8h-1.5
		c0.2,0.3,0.3,0.6,0.3,1c0,0.2,0,0.4-0.1,0.6c0.2,0,0.4,0.1,0.5,0.1c0.2,0,0.5-0.1,0.9-0.2v0.8C71.9,64.7,71.6,64.8,71.3,64.8z"/>
	<path class="st1" d="M71.9,61.6v0.8h3v0.8c-0.3-0.1-0.6-0.1-0.8-0.1c-0.5,0-1,0.1-1.3,0.4c-0.4,0.3-0.6,0.7-0.6,1.2
		c0,0.5,0.2,0.9,0.6,1.2c0.3,0.3,0.8,0.4,1.3,0.4c0.3,0,0.6,0,0.9-0.1v0.6h1v-4.3h1v-0.8H71.9z M74.9,65.2c-0.3,0.1-0.5,0.1-0.7,0.1
		c-0.6,0-0.9-0.3-0.9-0.8c0-0.5,0.3-0.7,0.8-0.7c0.2,0,0.5,0.1,0.8,0.2V65.2z"/>
	<polygon class="st1" points="78.9,62.4 78,62.4 78,66.7 77,66.7 77,62.4 76.5,62.4 76.5,61.6 78.9,61.6 	"/>
	<path class="st1" d="M82.7,64.8c-0.2,0-0.5-0.1-0.7-0.2v-0.3c-0.4,0.5-0.9,0.8-1.4,0.9c0.4,0.4,0.8,0.6,1.3,0.6
		c0.2,0,0.4,0,0.7-0.1l0,1c-0.3,0.1-0.6,0.2-0.8,0.2c-0.7,0-1.3-0.3-1.9-0.9c-0.5-0.6-0.8-1.3-0.8-2l1-0.4c0,0.3,0.1,0.6,0.1,0.8
		c0.3,0,0.5-0.1,0.8-0.3c0.2-0.2,0.3-0.4,0.3-0.7c0-0.4-0.2-0.7-0.6-0.9c-0.1,0-0.1-0.1-0.2-0.1c0,0-0.6,0-1.8,0v-0.8h4.8v0.8h-1.5
		c0.2,0.3,0.3,0.6,0.3,1c0,0.2,0,0.4-0.1,0.6c0.2,0,0.4,0.1,0.5,0.1c0.2,0,0.5-0.1,0.9-0.2v0.8C83.3,64.7,83,64.8,82.7,64.8z"/>
	<path class="st1" d="M88.2,66c-0.6,0.4-1.2,0.6-1.8,0.6c-0.7,0-1.3-0.2-1.8-0.5c-0.6-0.4-0.9-0.9-1.1-1.5l0.9-0.7
		c0,0.1,0,0.2,0,0.2c0.2,0.1,0.4,0.1,0.6,0.1c0.3,0,0.6-0.1,0.9-0.4c0.3-0.2,0.4-0.6,0.4-0.9c0-0.5-0.2-0.7-0.7-0.7
		c-0.1,0-0.2,0-0.3,0.1c-0.1,0.1-0.1,0.2-0.1,0.3c0,0.2,0.1,0.3,0.4,0.3c0.1,0,0.2,0,0.4-0.1l-0.2,0.8c-0.2,0-0.3,0.1-0.4,0.1
		c-0.3,0-0.6-0.1-0.8-0.3c-0.2-0.2-0.3-0.5-0.3-0.8c0,0,0-0.1,0-0.2h-0.9v-0.8h0.9v0.6c0.3-0.5,0.7-0.8,1.3-0.8
		c0.7,0,1.3,0.3,1.7,0.9v-0.7h1v0.8h-1c0.1,0.2,0.2,0.5,0.2,0.7c0,0.6-0.2,1.1-0.6,1.5c-0.4,0.4-0.9,0.6-1.6,0.6
		c0.4,0.3,0.9,0.4,1.2,0.4c0.6,0,1.2-0.2,1.8-0.8V66z"/>
	<path class="st1" d="M87.9,61.6v0.8h1.9c0.4,0.2,0.6,0.5,0.6,0.8c0,0.2-0.1,0.4-0.2,0.6s-0.4,0.3-0.6,0.3c-0.1,0-0.2,0-0.3-0.1
		c-0.1-0.2-0.1-0.3-0.2-0.5l-0.9,0.6c0.2,0.7,0.5,1.2,1,1.6c0.5,0.4,1.1,0.7,1.7,0.7c0.4,0,0.8-0.1,1.3-0.3v0.7h1v-4.3h1v-0.8H87.9z
		 M92.2,65c-0.4,0.3-0.8,0.4-1.1,0.4c-0.4,0-0.8-0.2-1.2-0.6c0.4-0.1,0.8-0.2,1.1-0.5c0.3-0.3,0.4-0.7,0.4-1.1
		c0-0.3-0.1-0.6-0.3-0.9h1.1V65z"/>
	<path class="st1" d="M94.4,67.7l-0.3-0.4c0.1-0.1,0.2-0.1,0.4-0.3c0.2-0.1,0.3-0.3,0.3-0.4c-0.4-0.1-0.6-0.3-0.6-0.6
		c0-0.2,0.1-0.3,0.2-0.4c0.1-0.1,0.3-0.2,0.4-0.2c0.2,0,0.3,0.1,0.4,0.2s0.2,0.3,0.2,0.4C95.5,66.8,95.1,67.3,94.4,67.7z"/>
	<path class="st1" d="M102.9,64.8c-0.2,0-0.5-0.1-0.7-0.2v-0.3c-0.4,0.5-0.9,0.8-1.4,0.9c0.4,0.4,0.8,0.6,1.3,0.6
		c0.2,0,0.4,0,0.7-0.1l0,1c-0.3,0.1-0.6,0.2-0.8,0.2c-0.7,0-1.3-0.3-1.9-0.9c-0.5-0.6-0.8-1.3-0.8-2l1-0.4c0,0.3,0.1,0.6,0.1,0.8
		c0.3,0,0.5-0.1,0.8-0.3c0.2-0.2,0.3-0.4,0.3-0.7c0-0.4-0.2-0.7-0.6-0.9c-0.1,0-0.1-0.1-0.2-0.1c0,0-0.6,0-1.8,0v-0.8h4.8v0.8h-1.5
		c0.2,0.3,0.3,0.6,0.3,1c0,0.2,0,0.4-0.1,0.6c0.2,0,0.4,0.1,0.5,0.1c0.2,0,0.5-0.1,0.9-0.2v0.8C103.5,64.7,103.2,64.8,102.9,64.8z"
		/>
	<path class="st1" d="M103.4,61.6v0.8h3v0.8c-0.3-0.1-0.6-0.1-0.8-0.1c-0.5,0-1,0.1-1.3,0.4c-0.4,0.3-0.6,0.7-0.6,1.2
		c0,0.5,0.2,0.9,0.6,1.2c0.3,0.3,0.8,0.4,1.3,0.4c0.3,0,0.6,0,0.9-0.1v0.6h1v-4.3h1v-0.8H103.4z M106.5,65.2
		c-0.3,0.1-0.5,0.1-0.7,0.1c-0.6,0-0.9-0.3-0.9-0.8c0-0.5,0.3-0.7,0.8-0.7c0.2,0,0.5,0.1,0.8,0.2V65.2z"/>
	<polygon class="st1" points="110.5,62.4 109.6,62.4 109.6,66.7 108.5,66.7 108.5,62.4 108,62.4 108,61.6 110.5,61.6 	"/>
	<path class="st1" d="M115.9,62.4h-1.4v1.3h-1.9c-0.7,0-1.1,0.3-1.1,0.9c0,0.5,0.2,0.9,0.7,1.1c0-0.1,0-0.2,0-0.3
		c0-0.4,0.1-0.7,0.4-0.9c0.3-0.2,0.6-0.4,1-0.4c0.4,0,0.7,0.1,0.9,0.3c0.2,0.2,0.4,0.5,0.4,0.8c0,0.6-0.4,1-1.2,1.3
		c0.3,0.4,0.7,0.8,1.1,1l-0.8,0.6c-0.5-0.5-0.7-0.7-0.8-0.7c-0.3-0.3-0.5-0.5-0.7-0.8c-0.6,0-1.1-0.2-1.5-0.5
		c-0.4-0.4-0.6-0.9-0.6-1.5c0-0.5,0.2-1,0.5-1.3c0.3-0.3,0.7-0.5,1.3-0.5h1.2v-0.6h-3.3v-0.8h5.7V62.4z"/>
	<path class="st1" d="M113.7,64.9c-0.2,0-0.3,0.1-0.3,0.4c0,0.1,0,0.3,0,0.4c0.4-0.1,0.5-0.3,0.5-0.5
		C113.9,65,113.8,64.9,113.7,64.9z"/>
	<path class="st1" d="M121.7,62.4c0.2,0.3,0.3,0.6,0.3,1c0,0.5-0.2,0.9-0.5,1.2c-0.3,0.4-0.7,0.6-1.2,0.6c0.4,0.4,0.8,0.6,1.3,0.6
		c0.2,0,0.4,0,0.7-0.1l0,1c-0.3,0.1-0.6,0.2-0.8,0.2c-0.7,0-1.3-0.3-1.9-0.9c-0.5-0.6-0.8-1.3-0.8-2l1-0.4c0,0.3,0.1,0.6,0.1,0.8
		c0.3,0,0.5-0.1,0.8-0.3c0.2-0.2,0.3-0.4,0.3-0.7c0-0.4-0.2-0.7-0.6-0.9c-0.1,0-0.1-0.1-0.2-0.1c0,0-0.6,0-1.8,0v-0.8h4.8v0.8H121.7
		z"/>
	<path class="st1" d="M125.7,61.6v0.8c1.2,0,1.7,0,1.8,0c0,0,0.1,0,0.2,0.1c0.4,0.2,0.6,0.5,0.6,0.9c0,0.3-0.1,0.5-0.3,0.7
		c-0.2,0.2-0.5,0.3-0.8,0.3c-0.1-0.3-0.1-0.5-0.1-0.8l-1,0.4c0,0.7,0.3,1.4,0.8,2c0.5,0.6,1.1,0.9,1.9,0.9c0.3,0,0.6-0.1,0.8-0.2
		l0-1c-0.3,0.1-0.5,0.1-0.7,0.1c-0.5,0-0.9-0.2-1.3-0.6c0.6,0,1-0.3,1.4-0.9v0.3c0.2,0.1,0.4,0.2,0.7,0.2c0.2,0,0.4,0,0.6-0.1v2h1
		v-4.3h1v-0.8H125.7z M130.3,63.9c-0.2,0.1-0.4,0.1-0.6,0.1c-0.1,0-0.3,0-0.5-0.1c0.1-0.2,0.1-0.4,0.1-0.6c0-0.3-0.1-0.7-0.3-1h1.3
		V63.9z"/>
	<rect x="132.1" y="61.6" class="st1" width="4.6" height="0.8"/>
	<path class="st1" d="M136.6,64.1l0-0.9h-2.4c-1.2,0-1.8,0.6-1.8,1.8c0,0.5,0.1,0.8,0.4,1.2c0.3,0.3,0.7,0.5,1.1,0.5
		c0.4,0,0.8-0.2,1.1-0.5s0.4-0.7,0.4-1.1c0-0.3-0.1-0.6-0.3-1H136.6z M134.2,65.6c-0.1,0.2-0.2,0.3-0.4,0.3c-0.3,0-0.4-0.3-0.4-0.9
		c0-0.5,0.2-0.8,0.7-0.8c0.2,0.2,0.3,0.5,0.3,1C134.4,65.3,134.3,65.4,134.2,65.6z"/>
	<path class="st1" d="M142.3,62.4h-1v4.3h-1v-2.5c-0.2,0-0.5,0-0.9,0c-0.4,0-0.6,0-0.8,0c-0.2,0-0.5,0.1-0.6,0.2
		c-0.2,0.2-0.3,0.4-0.3,0.6c0,0.8,0.5,1.2,1.4,1.3l-0.5,0.9c-0.6,0-1.1-0.3-1.4-0.7c-0.3-0.4-0.5-0.9-0.5-1.5c0-0.6,0.2-1,0.6-1.3
		c0.4-0.3,0.8-0.4,1.5-0.4h1.6v-0.9h-4v-0.8h6V62.4z"/>
	<path class="st1" d="M140.5,69.3c-0.5,0-0.9-0.1-1.3-0.3c-0.5-0.2-0.8-0.6-1-1l0.4-0.8c0.5,0.9,1.1,1.3,1.9,1.3
		c0.2,0,0.3,0,0.5-0.1c0.2-0.1,0.3-0.2,0.3-0.4c0-0.2-0.2-0.4-0.5-0.4c-0.2,0-0.5,0.1-0.9,0.2l-0.1-0.8c0.2-0.2,0.5-0.2,0.9-0.2
		c0.4,0,0.8,0.1,1,0.3c0.3,0.2,0.5,0.5,0.5,0.9c0,0.4-0.2,0.7-0.6,0.9C141.3,69.2,141,69.3,140.5,69.3z"/>
	<path class="st1" d="M146.8,61.8c0-0.4-0.2-0.8-0.6-1c-0.3-0.2-0.7-0.3-1.2-0.3c-0.9,0-1.4,0.4-1.5,1.2h0.9v0.8h-0.9v4.3h-1v-4.3
		H142v-0.8h0.4c0-0.7,0.3-1.2,0.8-1.5c0.5-0.3,1-0.5,1.7-0.5c0.7,0,1.3,0.2,1.9,0.5c0.6,0.4,0.9,1,0.9,1.7H146.8z"/>
	<path class="st1" d="M146.2,62.4h1.6v-0.8H144v0.8h0.6v2.1c0,0.5,0.2,1,0.5,1.3c0.3,0.3,0.8,0.5,1.3,0.5c0.2,0,0.5,0,0.8-0.1
		c0.3-0.1,0.6-0.2,0.7-0.3v-1.1L146.2,62.4z M146.5,65.2c-0.2,0-0.4-0.1-0.6-0.2c-0.2-0.1-0.2-0.3-0.2-0.6v-1.7l1.7,2.3
		C147,65.2,146.7,65.2,146.5,65.2z"/>
	<path class="st1" d="M152.8,62.4h-1.5v1.5H150c-0.3,0-0.6,0.1-0.9,0.2c-0.3,0.2-0.4,0.4-0.4,0.7c0,0.3,0.1,0.6,0.4,0.7
		c0.2,0.2,0.5,0.3,0.8,0.3c0.7,0,1.2-0.2,1.5-0.7l0.4,0.9c-0.2,0.2-0.5,0.4-0.8,0.6c-0.3,0.1-0.6,0.2-1,0.2c-0.4,0-0.6,0-0.8-0.1
		c-0.3-0.1-0.5-0.2-0.8-0.3c-0.5-0.4-0.8-0.9-0.8-1.6c0-0.6,0.2-1.1,0.7-1.4c0.2-0.1,0.5-0.2,0.9-0.2c0.1,0,0.5,0,1,0v-0.7h-2.9
		v-0.8h5.4V62.4z"/>
</g>
</svg>
