<?xml version="1.0" encoding="utf-8"?>
<!-- Generator: Adobe Illustrator 23.0.3, SVG Export Plug-In . SVG Version: 6.00 Build 0)  -->
<svg version="1.1" id="Layer_1" xmlns="http://www.w3.org/2000/svg" xmlns:xlink="http://www.w3.org/1999/xlink" x="0px" y="0px"
	 viewBox="0 0 153 88" style="enable-background:new 0 0 153 88;" xml:space="preserve">
<style type="text/css">
	.st0{fill:#FFFFFF;}
	.st1{fill:#808080;}
</style>
<g>
	<g id="C5IGgJ.tif">
		<g>
			<path class="st0" d="M151.7,36.9c0,5.4,0,10.9,0,16.3c0,0.3,0,0.7-0.1,1c-0.2,0.6-0.5,1-1.1,1.2c-0.8,0.3-1.5,0.1-2.3,0.2
				c-1.7,0-3.5,0-5.2,0c-1,0-1.9-0.7-1.9-1.9c0-2.5,0-4.9,0-7.4c0-1.8,0-3.5,0-5.3c0-0.3,0-0.7,0-1c0-0.1,0-0.2,0-0.3
				c0-0.1,0-0.2-0.1-0.2c-0.1,0-0.1,0.1-0.2,0.1c-0.1,0.2-0.2,0.3-0.2,0.5c-0.5,1.4-1.1,2.8-1.6,4.1c-0.6,1.5-1.2,2.9-1.8,4.4
				c-0.5,1.3-1,2.5-1.5,3.8c-0.3,0.8-0.6,1.5-0.9,2.3c-0.3,0.7-0.7,1-1.6,1c-1,0.1-2.1,0.1-3.1,0c-1-0.1-1.3-0.3-1.7-1.3
				c-0.5-1.3-1.1-2.7-1.6-4c-0.4-1-0.8-2.1-1.2-3.1c-0.4-1-0.8-2-1.2-3c-0.3-0.8-0.6-1.6-1-2.4c-0.2-0.5-0.4-1.1-0.7-1.6
				c-0.1-0.2-0.1-0.4-0.2-0.6c0-0.1-0.2-0.2-0.3-0.2c-0.1,0-0.1,0.2-0.1,0.3c0.1,4.6,0,9.1,0.1,13.7c0,0.2,0,0.5-0.1,0.7
				c-0.1,0.5-0.4,0.9-0.8,1.2c-0.3,0.2-0.7,0.3-1.1,0.3c-2.2,0-4.4,0-6.6,0c-0.7,0-1.3-0.3-1.7-0.9c-0.2-0.3-0.3-0.7-0.3-1.1
				c0-5.6,0-11.2,0-16.8c0-4.4,0-8.8,0-13.2c0-1.2,0-2.3,0-3.5c0-1.2,1-2,2-2c3.3,0,6.5,0,9.8,0c0.8,0,1.4,0.4,1.7,1.2
				c0.3,0.9,0.7,1.8,1.1,2.7c0.4,1,0.8,2.1,1.2,3.1c0.3,0.8,0.7,1.6,1,2.5c0.3,0.8,0.6,1.6,1,2.4c0.2,0.5,0.4,1.1,0.7,1.7
				c0.4,1,0.8,2,1.2,3c0.1,0.2,0.1,0.4,0.2,0.6c0,0.2,0.1,0.3,0.3,0.3c0.2,0,0.2-0.2,0.2-0.3c0.2-0.6,0.4-1.1,0.6-1.7
				c0.2-0.5,0.4-1,0.6-1.6c0.4-0.9,0.7-1.8,1.1-2.7c0.3-0.7,0.6-1.5,0.9-2.2c0.4-0.9,0.7-1.7,1-2.6c0.4-1,0.8-2,1.2-3
				c0.3-0.9,0.7-1.7,1-2.6c0.2-0.6,0.7-0.8,1.3-0.8c3.4,0,6.8,0,10.2,0c0.9,0,1.9,0.9,1.9,2c0,0.2,0,0.3,0,0.5
				C151.7,26,151.7,31.5,151.7,36.9z"/>
			<path class="st0" d="M54.3,33.4c2.6,0,5.2,0,7.9,0c1.1,0,2,0.9,1.9,2c0,2.6,0,5.2,0,7.8c0,1.6,0,3.3,0,4.9c0,0.6-0.3,1.1-0.7,1.5
				c-0.8,0.8-1.6,1.6-2.4,2.2c-0.7,0.5-1.4,1-2.1,1.5c-0.9,0.5-1.8,1-2.7,1.4c-0.6,0.3-1.3,0.5-2,0.7c-0.6,0.2-1.2,0.3-1.8,0.4
				c-0.7,0.2-1.4,0.2-2,0.3c-1.3,0.2-2.6,0.2-3.8,0.1c-1,0-1.9-0.2-2.9-0.4c-0.7-0.1-1.4-0.3-2-0.5c-0.7-0.2-1.3-0.4-1.9-0.7
				c-0.4-0.2-0.9-0.4-1.3-0.6c-0.9-0.4-1.7-0.9-2.4-1.5c-1-0.7-1.9-1.4-2.7-2.3c-0.8-0.9-1.5-1.8-2.2-2.8c-0.5-0.7-0.8-1.4-1.2-2.2
				c-0.4-0.8-0.7-1.6-0.9-2.4c-0.3-1.1-0.6-2.2-0.7-3.3c-0.3-2-0.3-3.9,0.1-5.9c0.2-1.3,0.5-2.5,0.9-3.8c0.3-1,0.8-1.9,1.3-2.8
				c0.9-1.6,2-3,3.3-4.2c0.6-0.6,1.2-1.1,1.9-1.6c0.7-0.5,1.5-1,2.3-1.5c0.7-0.4,1.4-0.7,2.2-1c0.5-0.2,0.9-0.4,1.4-0.5
				c0.6-0.1,1.1-0.4,1.7-0.4c0.3,0,0.5-0.1,0.8-0.2c1.9-0.2,3.7-0.5,5.6-0.2c0.6,0.1,1.2,0.1,1.7,0.2c0.7,0.2,1.3,0.3,2,0.5
				c0.7,0.2,1.4,0.4,2.1,0.7c0.5,0.2,1,0.4,1.4,0.7c0.6,0.3,1.1,0.7,1.7,1.1c0.5,0.4,1.1,0.8,1.5,1.3c0.8,0.7,1.5,1.5,2.1,2.4
				c0.3,0.4,0.6,0.9,0.9,1.3c0.1,0.2,0.2,0.4,0.2,0.6c0,0.7-0.1,1.4-0.7,1.8c-0.4,0.2-0.7,0.4-1.1,0.6c-0.7,0.4-1.5,0.8-2.2,1.2
				c-0.7,0.4-1.5,0.8-2.2,1.2c-0.4,0.2-0.7,0.4-1.2,0.5c-0.6,0.1-1.2-0.1-1.5-0.7c-0.6-0.9-1.3-1.7-2.2-2.3
				c-0.7-0.5-1.5-0.9-2.3-1.1c-0.8-0.3-1.7-0.3-2.5-0.3c-0.2,0-0.4,0-0.7,0c-0.8,0-1.6,0.2-2.3,0.5c-0.6,0.2-1.1,0.5-1.6,0.8
				c-0.7,0.5-1.3,1-1.9,1.7c-0.7,0.9-1.2,1.8-1.6,2.9c-0.5,1.4-0.6,2.8-0.5,4.2c0,0.7,0.1,1.5,0.3,2.2c0.6,2,1.6,3.6,3.3,4.9
				c0.6,0.4,1.3,0.8,1.9,1.1c0.4,0.2,0.7,0.3,1.1,0.4c0.4,0.2,0.9,0.2,1.3,0.2c0.9,0.1,1.9,0.1,2.8-0.1c0.5-0.1,1-0.3,1.6-0.5
				c0.7-0.2,1.3-0.6,1.9-0.9c0.2-0.1,0.2-0.3,0.2-0.5c0-0.2,0-0.5,0-0.7c0-0.4-0.1-0.5-0.5-0.5c-0.9,0-1.8,0-2.7,0
				c-1.3,0-2.6,0-3.9,0c-1.1,0-1.9-0.8-1.9-1.9c0-2,0-4,0-6c0-1.1,0.9-1.9,1.9-1.9C49,33.4,51.7,33.4,54.3,33.4z"/>
			<path class="st0" d="M66.2,36.7c0-1.3,0-2.6,0-4c0-2,0-4,0-6c0-1.2,0-2.3,0-3.5c0-0.9,0-1.9,0-2.8c0-0.4,0-0.7,0.1-1.1
				c0-0.2,0.2-0.4,0.3-0.6c0.4-0.5,1-0.8,1.6-0.8c4.6,0,9.3,0,13.9,0c1,0,2-0.1,3,0.1c0.7,0.1,1.5,0.1,2.2,0.4
				c0.4,0.1,0.7,0.2,1.1,0.3c1.2,0.3,2.2,0.8,3.2,1.5c1.2,0.8,2.2,1.7,3,2.9c0.6,0.9,1.1,1.8,1.5,2.8c0.4,1.2,0.7,2.4,0.8,3.6
				c0.1,1.2,0.1,2.5-0.1,3.7c-0.2,1-0.4,2-0.9,3c-0.4,0.9-0.9,1.7-1.5,2.4c-0.7,1-1.6,1.7-2.6,2.4c-0.3,0.2-0.7,0.5-1.1,0.6
				c-0.3,0.1-0.4,0.3-0.2,0.6c0.5,0.7,0.9,1.5,1.3,2.2c0.5,0.9,1,1.7,1.5,2.6c0.4,0.7,0.8,1.4,1.2,2.1c0.5,0.8,1,1.7,1.5,2.5
				c0.2,0.4,0.5,0.8,0.7,1.3c0.4,0.7,0.2,1.4-0.3,2c-0.3,0.5-0.8,0.6-1.4,0.6c-2.7,0-5.4,0-8.1,0c-0.6,0-1.1-0.3-1.4-0.8
				c-0.6-1.2-1.3-2.3-1.9-3.5c-0.6-1-1.1-2-1.7-3c-0.4-0.8-0.9-1.6-1.3-2.4c-0.4-0.7-0.7-1.3-1.1-2c-0.1-0.2-0.3-0.4-0.6-0.4
				c-0.6,0-1.1,0-1.7,0c-0.3,0-0.4,0.1-0.4,0.4c0,3.2,0,6.4,0,9.6c0,0.7-0.2,1.3-0.8,1.7c-0.3,0.2-0.7,0.4-1.1,0.4
				c-2.3,0-4.6,0-6.9,0c-0.6,0-1.1-0.3-1.5-0.7c-0.4-0.5-0.4-1.1-0.4-1.6c0-1.1,0-2.2,0-3.3c0-0.7,0-1.4,0-2.1c0-1.3,0-2.7,0-4
				c0-1.7,0-3.4,0-5.1C66.2,37.9,66.2,37.3,66.2,36.7C66.2,36.7,66.2,36.7,66.2,36.7z M81,35.1C81,35.1,81,35,81,35.1
				c0.9-0.1,1.7-0.1,2.6-0.1c0.7,0,1.3-0.1,1.9-0.5c1-0.6,1.5-1.6,1.4-2.7c-0.1-1.6-1.5-2.8-3.1-2.8c-0.2,0-0.4,0-0.6,0
				c-0.3,0-0.4-0.1-0.3-0.4c0-0.2,0-0.4,0-0.6c0-0.8-0.2-1.5-0.7-2.1c-0.9-1.1-2.4-1.5-3.7-0.7c-1,0.6-1.5,1.4-1.6,2.6
				c0,2-0.1,4-0.1,6c0,0.6,0.4,1.2,1.2,1.2C79,35.1,80,35.1,81,35.1z"/>
			<path class="st0" d="M18.7,18.2c1.5,0,3,0,4.4,0c0.7,0,1.4,0.4,1.7,1.2c0.4,1.1,0.8,2.2,1.3,3.3c0.5,1.4,1.1,2.8,1.6,4.2
				c0.1,0.4,0.3,0.8,0.4,1.2c0,0.1,0.1,0.2,0,0.4c-0.7,1.5-1,3.1-1.4,4.8c-0.3,1.6-0.4,3.2-0.4,4.8c0.1,1.7,0.4,3.4,0.9,5.1
				c0.3,1.2,0.7,2.4,1.3,3.6c0.6,1.3,1.4,2.4,2.3,3.5c0.8,1.1,1.8,2,2.8,2.9c0.5,0.4,1.1,0.8,1.6,1.2c0.5,0.3,1,0.7,1.5,1
				c0.1,0,0.2,0.1,0.2,0.2c0,0.1-0.2,0.1-0.3,0.2c-0.8,0.3-1.6,0.1-2.3,0.2c-2.1,0-4.3,0-6.4,0c-0.9,0-1.4-0.3-1.7-1.2
				c-0.3-1-0.7-1.9-1-2.9c-0.2-0.4-0.3-0.9-0.5-1.3c-0.1-0.3-0.2-0.4-0.5-0.4c-3.1,0-6.2,0-9.4,0c-0.7,0-1.4,0-2.1,0
				c-0.3,0-0.4,0.1-0.5,0.4c-0.5,1.5-1.1,2.9-1.6,4.4c-0.3,0.7-0.7,1-1.6,1c-2.6,0-5.3,0-7.9,0c-1.1,0-1.9-0.7-2-1.8
				c-0.1-0.4,0.2-0.8,0.3-1.2c0.3-0.8,0.6-1.6,0.9-2.4c0.3-0.9,0.7-1.8,1-2.6c0.3-0.7,0.5-1.3,0.8-2c0.3-0.9,0.7-1.7,1-2.6
				c0.6-1.6,1.2-3.1,1.8-4.7c0.4-1,0.8-2.1,1.2-3.1c0.4-1.1,0.8-2.1,1.2-3.2c0.3-0.8,0.6-1.6,0.9-2.4c0.4-1.1,0.8-2.2,1.3-3.3
				c0.3-0.8,0.6-1.7,1-2.5c0.6-1.5,1.2-3.1,1.8-4.6c0.2-0.6,0.6-1.1,1.3-1.1c0.4-0.1,0.8,0,1.3,0C16.3,18.2,17.5,18.2,18.7,18.2z
				 M18.8,40.6C18.8,40.6,18.8,40.6,18.8,40.6c0.8,0,1.7,0,2.5,0c0.1,0,0.2,0,0.3,0c0.6-0.1,1-0.8,0.7-1.3c-0.2-0.6-0.5-1.2-0.7-1.8
				c-0.6-1.4-1.1-2.7-1.6-4.1c-0.1-0.3-0.2-0.6-0.5-0.9c-0.3-0.3-0.7-0.5-1.2-0.2c-0.3,0.2-0.5,0.4-0.6,0.7
				c-0.2,0.5-0.4,1.1-0.6,1.6c-0.3,0.8-0.6,1.6-1,2.4c-0.3,0.7-0.5,1.4-0.8,2.1c-0.1,0.2-0.2,0.5-0.1,0.7c0.1,0.5,0.5,0.8,1.1,0.8
				C17.2,40.6,18,40.6,18.8,40.6z"/>
			<path class="st0" d="M109.2,36.9c0,5.6,0,11.2,0,16.7c0,0.7-0.3,1.3-0.9,1.7c-0.3,0.2-0.7,0.3-1.1,0.3c-2.2,0-4.4,0-6.6,0
				c-0.7,0-1.4-0.3-1.8-0.9c-0.2-0.3-0.3-0.7-0.3-1.1c0-2.7,0-5.3,0-8c0-1.7,0-3.5,0-5.2c0-4.4,0-8.9,0-13.3c0-0.2,0-0.5-0.2-0.6
				c-0.2-0.2-0.2-0.4-0.3-0.7c-0.6-1.3-1.2-2.6-1.8-3.8c-0.3-0.6-0.6-1.2-0.9-1.8c-0.2-0.3-0.2-0.6-0.2-0.9c0-0.4,0.3-0.7,0.6-0.8
				c0.5-0.2,1.1-0.2,1.7-0.2c3.3,0,6.5,0,9.8,0c0.8,0,1.3,0.4,1.8,1c0.2,0.3,0.2,0.6,0.2,0.9C109.2,25.7,109.2,31.3,109.2,36.9z"/>
		</g>
	</g>
	<path class="st1" d="M70.3,65.8c-0.2,0-0.5-0.1-0.7-0.2v-0.3c-0.4,0.5-0.9,0.8-1.4,0.9c0.4,0.4,0.8,0.6,1.3,0.6
		c0.2,0,0.4,0,0.7-0.1l0,1c-0.3,0.1-0.6,0.2-0.8,0.2c-0.7,0-1.3-0.3-1.9-0.9c-0.5-0.6-0.8-1.3-0.8-2l1-0.4c0,0.3,0.1,0.6,0.1,0.8
		c0.3,0,0.5-0.1,0.8-0.3c0.2-0.2,0.3-0.4,0.3-0.7c0-0.4-0.2-0.7-0.6-0.9c-0.1,0-0.1-0.1-0.2-0.1c0,0-0.6,0-1.8,0v-0.8h4.8v0.8h-1.5
		c0.2,0.3,0.3,0.6,0.3,1c0,0.2,0,0.4-0.1,0.6c0.2,0,0.4,0.1,0.5,0.1c0.2,0,0.5-0.1,0.9-0.2v0.8C70.9,65.7,70.6,65.8,70.3,65.8z"/>
	<path class="st1" d="M70.9,62.6v0.8h3v0.8c-0.3-0.1-0.6-0.1-0.8-0.1c-0.5,0-1,0.1-1.3,0.4c-0.4,0.3-0.6,0.7-0.6,1.2
		c0,0.5,0.2,0.9,0.6,1.2c0.3,0.3,0.8,0.4,1.3,0.4c0.3,0,0.6,0,0.9-0.1v0.6h1v-4.3h1v-0.8H70.9z M73.9,66.2c-0.3,0.1-0.5,0.1-0.7,0.1
		c-0.6,0-0.9-0.3-0.9-0.8c0-0.5,0.3-0.7,0.8-0.7c0.2,0,0.5,0.1,0.8,0.2V66.2z"/>
	<polygon class="st1" points="77.9,63.4 77,63.4 77,67.7 76,67.7 76,63.4 75.5,63.4 75.5,62.6 77.9,62.6 	"/>
	<path class="st1" d="M81.7,65.8c-0.2,0-0.5-0.1-0.7-0.2v-0.3c-0.4,0.5-0.9,0.8-1.4,0.9c0.4,0.4,0.8,0.6,1.3,0.6
		c0.2,0,0.4,0,0.7-0.1l0,1c-0.3,0.1-0.6,0.2-0.8,0.2c-0.7,0-1.3-0.3-1.9-0.9c-0.5-0.6-0.8-1.3-0.8-2l1-0.4c0,0.3,0.1,0.6,0.1,0.8
		c0.3,0,0.5-0.1,0.8-0.3c0.2-0.2,0.3-0.4,0.3-0.7c0-0.4-0.2-0.7-0.6-0.9c-0.1,0-0.1-0.1-0.2-0.1c0,0-0.6,0-1.8,0v-0.8h4.8v0.8h-1.5
		c0.2,0.3,0.3,0.6,0.3,1c0,0.2,0,0.4-0.1,0.6c0.2,0,0.4,0.1,0.5,0.1c0.2,0,0.5-0.1,0.9-0.2v0.8C82.3,65.7,82,65.8,81.7,65.8z"/>
	<path class="st1" d="M87.2,67c-0.6,0.4-1.2,0.6-1.8,0.6c-0.7,0-1.3-0.2-1.8-0.5c-0.6-0.4-0.9-0.9-1.1-1.5l0.9-0.7
		c0,0.1,0,0.2,0,0.2c0.2,0.1,0.4,0.1,0.6,0.1c0.3,0,0.6-0.1,0.9-0.4c0.3-0.2,0.4-0.6,0.4-0.9c0-0.5-0.2-0.7-0.7-0.7
		c-0.1,0-0.2,0-0.3,0.1c-0.1,0.1-0.1,0.2-0.1,0.3c0,0.2,0.1,0.3,0.4,0.3c0.1,0,0.2,0,0.4-0.1l-0.2,0.8c-0.2,0-0.3,0.1-0.4,0.1
		c-0.3,0-0.6-0.1-0.8-0.3c-0.2-0.2-0.3-0.5-0.3-0.8c0,0,0-0.1,0-0.2h-0.9v-0.8h0.9v0.6c0.3-0.5,0.7-0.8,1.3-0.8
		c0.7,0,1.3,0.3,1.7,0.9v-0.7h1v0.8h-1c0.1,0.2,0.2,0.5,0.2,0.7c0,0.6-0.2,1.1-0.6,1.5c-0.4,0.4-0.9,0.6-1.6,0.6
		c0.4,0.3,0.9,0.4,1.2,0.4c0.6,0,1.2-0.2,1.8-0.8V67z"/>
	<path class="st1" d="M86.9,62.6v0.8h1.9c0.4,0.2,0.6,0.5,0.6,0.8c0,0.2-0.1,0.4-0.2,0.6s-0.4,0.3-0.6,0.3c-0.1,0-0.2,0-0.3-0.1
		c-0.1-0.2-0.1-0.3-0.2-0.5l-0.9,0.6c0.2,0.7,0.5,1.2,1,1.6c0.5,0.4,1.1,0.7,1.7,0.7c0.4,0,0.8-0.1,1.3-0.3v0.7h1v-4.3h1v-0.8H86.9z
		 M91.2,66c-0.4,0.3-0.8,0.4-1.1,0.4c-0.4,0-0.8-0.2-1.2-0.6c0.4-0.1,0.8-0.2,1.1-0.5c0.3-0.3,0.4-0.7,0.4-1.1
		c0-0.3-0.1-0.6-0.3-0.9h1.1V66z"/>
	<path class="st1" d="M93.4,68.7l-0.3-0.4c0.1-0.1,0.2-0.1,0.4-0.3c0.2-0.1,0.3-0.3,0.3-0.4c-0.4-0.1-0.6-0.3-0.6-0.6
		c0-0.2,0.1-0.3,0.2-0.4c0.1-0.1,0.3-0.2,0.4-0.2c0.2,0,0.3,0.1,0.4,0.2s0.2,0.3,0.2,0.4C94.5,67.8,94.1,68.3,93.4,68.7z"/>
	<path class="st1" d="M101.9,65.8c-0.2,0-0.5-0.1-0.7-0.2v-0.3c-0.4,0.5-0.9,0.8-1.4,0.9c0.4,0.4,0.8,0.6,1.3,0.6
		c0.2,0,0.4,0,0.7-0.1l0,1c-0.3,0.1-0.6,0.2-0.8,0.2c-0.7,0-1.3-0.3-1.9-0.9c-0.5-0.6-0.8-1.3-0.8-2l1-0.4c0,0.3,0.1,0.6,0.1,0.8
		c0.3,0,0.5-0.1,0.8-0.3c0.2-0.2,0.3-0.4,0.3-0.7c0-0.4-0.2-0.7-0.6-0.9c-0.1,0-0.1-0.1-0.2-0.1c0,0-0.6,0-1.8,0v-0.8h4.8v0.8h-1.5
		c0.2,0.3,0.3,0.6,0.3,1c0,0.2,0,0.4-0.1,0.6c0.2,0,0.4,0.1,0.5,0.1c0.2,0,0.5-0.1,0.9-0.2v0.8C102.5,65.7,102.2,65.8,101.9,65.8z"
		/>
	<path class="st1" d="M102.4,62.6v0.8h3v0.8c-0.3-0.1-0.6-0.1-0.8-0.1c-0.5,0-1,0.1-1.3,0.4c-0.4,0.3-0.6,0.7-0.6,1.2
		c0,0.5,0.2,0.9,0.6,1.2c0.3,0.3,0.8,0.4,1.3,0.4c0.3,0,0.6,0,0.9-0.1v0.6h1v-4.3h1v-0.8H102.4z M105.5,66.2
		c-0.3,0.1-0.5,0.1-0.7,0.1c-0.6,0-0.9-0.3-0.9-0.8c0-0.5,0.3-0.7,0.8-0.7c0.2,0,0.5,0.1,0.8,0.2V66.2z"/>
	<polygon class="st1" points="109.5,63.4 108.6,63.4 108.6,67.7 107.5,67.7 107.5,63.4 107,63.4 107,62.6 109.5,62.6 	"/>
	<path class="st1" d="M114.9,63.4h-1.4v1.3h-1.9c-0.7,0-1.1,0.3-1.1,0.9c0,0.5,0.2,0.9,0.7,1.1c0-0.1,0-0.2,0-0.3
		c0-0.4,0.1-0.7,0.4-0.9c0.3-0.2,0.6-0.4,1-0.4c0.4,0,0.7,0.1,0.9,0.3c0.2,0.2,0.4,0.5,0.4,0.8c0,0.6-0.4,1-1.2,1.3
		c0.3,0.4,0.7,0.8,1.1,1l-0.8,0.6c-0.5-0.5-0.7-0.7-0.8-0.7c-0.3-0.3-0.5-0.5-0.7-0.8c-0.6,0-1.1-0.2-1.5-0.5
		c-0.4-0.4-0.6-0.9-0.6-1.5c0-0.5,0.2-1,0.5-1.3c0.3-0.3,0.7-0.5,1.3-0.5h1.2v-0.6h-3.3v-0.8h5.7V63.4z"/>
	<path class="st1" d="M112.7,65.9c-0.2,0-0.3,0.1-0.3,0.4c0,0.1,0,0.3,0,0.4c0.4-0.1,0.5-0.3,0.5-0.5
		C112.9,66,112.8,65.9,112.7,65.9z"/>
	<path class="st1" d="M120.7,63.4c0.2,0.3,0.3,0.6,0.3,1c0,0.5-0.2,0.9-0.5,1.2c-0.3,0.4-0.7,0.6-1.2,0.6c0.4,0.4,0.8,0.6,1.3,0.6
		c0.2,0,0.4,0,0.7-0.1l0,1c-0.3,0.1-0.6,0.2-0.8,0.2c-0.7,0-1.3-0.3-1.9-0.9c-0.5-0.6-0.8-1.3-0.8-2l1-0.4c0,0.3,0.1,0.6,0.1,0.8
		c0.3,0,0.5-0.1,0.8-0.3c0.2-0.2,0.3-0.4,0.3-0.7c0-0.4-0.2-0.7-0.6-0.9c-0.1,0-0.1-0.1-0.2-0.1c0,0-0.6,0-1.8,0v-0.8h4.8v0.8H120.7
		z"/>
	<path class="st1" d="M124.7,62.6v0.8c1.2,0,1.7,0,1.8,0c0,0,0.1,0,0.2,0.1c0.4,0.2,0.6,0.5,0.6,0.9c0,0.3-0.1,0.5-0.3,0.7
		c-0.2,0.2-0.5,0.3-0.8,0.3c-0.1-0.3-0.1-0.5-0.1-0.8l-1,0.4c0,0.7,0.3,1.4,0.8,2c0.5,0.6,1.1,0.9,1.9,0.9c0.3,0,0.6-0.1,0.8-0.2
		l0-1c-0.3,0.1-0.5,0.1-0.7,0.1c-0.5,0-0.9-0.2-1.3-0.6c0.6,0,1-0.3,1.4-0.9v0.3c0.2,0.1,0.4,0.2,0.7,0.2c0.2,0,0.4,0,0.6-0.1v2h1
		v-4.3h1v-0.8H124.7z M129.3,64.9c-0.2,0.1-0.4,0.1-0.6,0.1c-0.1,0-0.3,0-0.5-0.1c0.1-0.2,0.1-0.4,0.1-0.6c0-0.3-0.1-0.7-0.3-1h1.3
		V64.9z"/>
	<rect x="131.1" y="62.6" class="st1" width="4.6" height="0.8"/>
	<path class="st1" d="M135.6,65.1l0-0.9h-2.4c-1.2,0-1.8,0.6-1.8,1.8c0,0.5,0.1,0.8,0.4,1.2c0.3,0.3,0.7,0.5,1.1,0.5
		c0.4,0,0.8-0.2,1.1-0.5s0.4-0.7,0.4-1.1c0-0.3-0.1-0.6-0.3-1H135.6z M133.2,66.6c-0.1,0.2-0.2,0.3-0.4,0.3c-0.3,0-0.4-0.3-0.4-0.9
		c0-0.5,0.2-0.8,0.7-0.8c0.2,0.2,0.3,0.5,0.3,1C133.4,66.3,133.3,66.4,133.2,66.6z"/>
	<path class="st1" d="M141.3,63.4h-1v4.3h-1v-2.5c-0.2,0-0.5,0-0.9,0c-0.4,0-0.6,0-0.8,0c-0.2,0-0.5,0.1-0.6,0.2
		c-0.2,0.2-0.3,0.4-0.3,0.6c0,0.8,0.5,1.2,1.4,1.3l-0.5,0.9c-0.6,0-1.1-0.3-1.4-0.7c-0.3-0.4-0.5-0.9-0.5-1.5c0-0.6,0.2-1,0.6-1.3
		c0.4-0.3,0.8-0.4,1.5-0.4h1.6v-0.9h-4v-0.8h6V63.4z"/>
	<path class="st1" d="M139.5,70.3c-0.5,0-0.9-0.1-1.3-0.3c-0.5-0.2-0.8-0.6-1-1l0.4-0.8c0.5,0.9,1.1,1.3,1.9,1.3
		c0.2,0,0.3,0,0.5-0.1c0.2-0.1,0.3-0.2,0.3-0.4c0-0.2-0.2-0.4-0.5-0.4c-0.2,0-0.5,0.1-0.9,0.2l-0.1-0.8c0.2-0.2,0.5-0.2,0.9-0.2
		c0.4,0,0.8,0.1,1,0.3c0.3,0.2,0.5,0.5,0.5,0.9c0,0.4-0.2,0.7-0.6,0.9C140.3,70.2,140,70.3,139.5,70.3z"/>
	<path class="st1" d="M145.8,62.8c0-0.4-0.2-0.8-0.6-1c-0.3-0.2-0.7-0.3-1.2-0.3c-0.9,0-1.4,0.4-1.5,1.2h0.9v0.8h-0.9v4.3h-1v-4.3
		H141v-0.8h0.4c0-0.7,0.3-1.2,0.8-1.5c0.5-0.3,1-0.5,1.7-0.5c0.7,0,1.3,0.2,1.9,0.5c0.6,0.4,0.9,1,0.9,1.7H145.8z"/>
	<path class="st1" d="M145.2,63.4h1.6v-0.8H143v0.8h0.6v2.1c0,0.5,0.2,1,0.5,1.3c0.3,0.3,0.8,0.5,1.3,0.5c0.2,0,0.5,0,0.8-0.1
		c0.3-0.1,0.6-0.2,0.7-0.3v-1.1L145.2,63.4z M145.5,66.2c-0.2,0-0.4-0.1-0.6-0.2c-0.2-0.1-0.2-0.3-0.2-0.6v-1.7l1.7,2.3
		C146,66.2,145.7,66.2,145.5,66.2z"/>
	<path class="st1" d="M151.8,63.4h-1.5v1.5H149c-0.3,0-0.6,0.1-0.9,0.2c-0.3,0.2-0.4,0.4-0.4,0.7c0,0.3,0.1,0.6,0.4,0.7
		c0.2,0.2,0.5,0.3,0.8,0.3c0.7,0,1.2-0.2,1.5-0.7l0.4,0.9c-0.2,0.2-0.5,0.4-0.8,0.6c-0.3,0.1-0.6,0.2-1,0.2c-0.4,0-0.6,0-0.8-0.1
		c-0.3-0.1-0.5-0.2-0.8-0.3c-0.5-0.4-0.8-0.9-0.8-1.6c0-0.6,0.2-1.1,0.7-1.4c0.2-0.1,0.5-0.2,0.9-0.2c0.1,0,0.5,0,1,0v-0.7h-2.9
		v-0.8h5.4V63.4z"/>
</g>
</svg>
